<?xml version="1.0" encoding="iso-8859-1"?>
<!-- Generator: Adobe Illustrator 19.0.0, SVG Export Plug-In . SVG Version: 6.00 Build 0)  -->
<svg version="1.1" id="Capa_1" xmlns="http://www.w3.org/2000/svg" xmlns:xlink="http://www.w3.org/1999/xlink" x="0px" y="0px"
	 viewBox="0 0 480.014 480.014" style="enable-background:new 0 0 480.014 480.014;" xml:space="preserve">
<g>
	<g>
		<path d="M240.007,136.014c-26.51,0-48,21.49-48,48c0,26.51,21.49,48,48,48c26.51,0,48-21.49,48-48
			C287.981,157.516,266.506,136.041,240.007,136.014z M240.007,216.014c-17.673,0-32-14.327-32-32s14.327-32,32-32
			c17.673,0,32,14.327,32,32S257.68,216.014,240.007,216.014z"/>
	</g>
</g>
<g>
	<g>
		<path d="M359.071,246.686c0.568-7.56,0.936-15.152,0.936-22.672c0-61.056-18.024-118.4-48.368-154.4
			c-0.385-1.234-1.063-2.357-1.976-3.272l-64-64c-3.124-3.123-8.188-3.123-11.312,0l-64,64c-0.913,0.915-1.591,2.038-1.976,3.272
			c-30.344,36-48.368,93.344-48.368,154.4c0,7.496,0.368,15.064,0.928,22.592c-48.444,16.618-80.966,62.193-80.928,113.408
			c0,4.418,3.582,8,8,8h112.6c8.55,12.367,19.173,23.164,31.4,31.912v8.088c0,4.418,3.582,8,8,8h8.2c1.52,32.984,12.36,64,31.8,64
			s30.28-31.016,31.8-64h8.2c4.418,0,8-3.582,8-8v-8.088c12.227-8.748,22.85-19.545,31.4-31.912h112.6c4.418,0,8-3.582,8-8
			C439.855,308.876,407.393,263.423,359.071,246.686z M240.007,19.326l36.688,36.688h-73.376L240.007,19.326z M56.311,352.014
			c1.868-24.748,12.563-48.003,30.136-65.528c10.264-10.234,22.542-18.224,36.056-23.464c0.168,1.248,0.384,2.464,0.56,3.704
			c0.216,1.504,0.44,2.992,0.672,4.48c0.552,3.512,1.176,6.992,1.848,10.4c0.256,1.288,0.488,2.584,0.752,3.856
			c0.984,4.656,2.04,9.264,3.24,13.776c0,0.136,0.08,0.264,0.112,0.4c1.152,4.328,2.4,8.568,3.776,12.752
			c0.424,1.312,0.88,2.6,1.328,3.904c1.035,3.029,2.115,6.011,3.24,8.944c0.536,1.384,1.072,2.76,1.6,4.12
			c1.248,3.056,2.552,6.04,3.912,8.976c0.456,1,0.888,2.024,1.368,3.008c1.744,3.64,3.552,7.2,5.464,10.632L56.311,352.014z
			 M240.007,464.014c-4.288,0-14.288-16.8-15.792-48h31.584C254.295,447.214,244.295,464.014,240.007,464.014z M272.007,400.014h-64
			v-32h64V400.014z M308.719,355.582c-5.862,8.9-12.821,17.028-20.712,24.192v-19.76c0-4.418-3.582-8-8-8h-80c-4.418,0-8,3.582-8,8
			v19.76c-7.893-7.171-14.851-15.307-20.712-24.216c-2.267-3.381-4.437-6.915-6.512-10.6
			c-15.473-28.913-24.819-60.705-27.456-93.392c-0.872-9.152-1.32-18.416-1.32-27.552c0-58.928,17.512-113.76,46.848-146.672
			c0.609-0.68,1.096-1.459,1.44-2.304l3.024-3.024h105.376l3.024,3.024c0.344,0.845,0.831,1.624,1.44,2.304
			c29.336,32.912,46.848,87.744,46.848,146.672c0,9.136-0.448,18.4-1.32,27.568C339.949,288.487,328.292,324.176,308.719,355.582z
			 M329.607,352.014c1.912-3.432,3.72-6.992,5.472-10.632c0.464-0.976,0.896-2,1.352-2.992c1.36-2.944,2.672-5.936,3.92-9
			c0.552-1.352,1.088-2.728,1.6-4.104c1.131-2.923,2.197-5.896,3.2-8.92c0.448-1.32,0.912-2.624,1.344-3.96
			c1.312-4.064,2.536-8.197,3.672-12.4c0.072-0.264,0.152-0.512,0.224-0.8c1.176-4.464,2.224-9.016,3.2-13.6
			c0.296-1.408,0.544-2.832,0.8-4.256c0.64-3.28,1.227-6.587,1.76-9.92c0.256-1.64,0.504-3.272,0.736-4.92
			c0.168-1.168,0.376-2.312,0.528-3.48c37.332,14.493,63.084,49.065,66.28,88.984H329.607z"/>
	</g>
</g>
<g>
</g>
<g>
</g>
<g>
</g>
<g>
</g>
<g>
</g>
<g>
</g>
<g>
</g>
<g>
</g>
<g>
</g>
<g>
</g>
<g>
</g>
<g>
</g>
<g>
</g>
<g>
</g>
<g>
</g>
</svg>
